<svg width="95" height="22" viewBox="0 0 95 22" fill="none" xmlns="http://www.w3.org/2000/svg">
<path d="M7.00677 5.80523C6.804 5.57155 6.55437 5.45443 6.25731 5.45443H0.182051C0.128089 5.45443 0.0839395 5.43722 0.0506907 5.40281C0.0168969 5.36895 0 5.33065 0 5.28957V1.16486C0 1.12378 0.0168969 1.08604 0.0506907 1.05162C0.0839395 1.01721 0.128089 1 0.182051 1H6.60179C8.22171 1 9.61925 1.66719 10.7939 3.00047L12.3533 4.91823L9.31565 8.65107L7.00677 5.80523ZM18.2263 2.97993C19.4009 1.65998 20.805 1 22.4386 1H28.8381C28.8921 1 28.9324 1.01388 28.9597 1.04108C28.9864 1.06883 29 1.1099 29 1.16486V5.28957C29 5.33065 28.9864 5.36895 28.9597 5.40281C28.9324 5.43722 28.8921 5.45443 28.8381 5.45443H22.7629C22.4658 5.45443 22.2162 5.57155 22.0134 5.80523L17.5379 11.291L22.0336 16.8178C22.2363 17.0382 22.4789 17.1481 22.7629 17.1481H28.8381C28.8921 17.1481 28.9324 17.1653 28.9597 17.1997C28.9864 17.2341 29 17.2791 29 17.3335V21.4582C29 21.4993 28.9864 21.5376 28.9597 21.5714C28.9324 21.6058 28.8921 21.623 28.8381 21.623H22.4386C20.805 21.623 19.4075 20.9564 18.2465 19.6226L14.5204 15.0444L10.7939 19.6226C9.61925 20.9564 8.21517 21.623 6.58162 21.623H0.182051C0.128089 21.623 0.0872099 21.6058 0.0605018 21.5714C0.0332488 21.537 0.0201673 21.4926 0.0201673 21.4371V17.3124C0.0201673 17.2713 0.0332488 17.2336 0.0605018 17.1991C0.0872099 17.1647 0.128089 17.1475 0.182051 17.1475H6.25731C6.54074 17.1475 6.79038 17.0309 7.00677 16.7967L11.4011 11.3937L18.2263 2.97993Z" fill="#00D1FF"/>
<path d="M48.84 6.99999H44C43.3 6.99999 42.72 7.57999 42.72 8.27999V9.39999C42.72 10.1 43.3 10.68 44 10.68H49.7C51.38 10.68 52.82 12.06 52.82 13.78V15.76C52.82 17.42 51.44 18.86 49.7 18.86H43.2C41.54 18.86 40.06 17.46 40.06 15.76V14.8H42.58V15.46C42.58 16.16 43.14 16.74 43.84 16.74H49.06C49.76 16.74 50.32 16.16 50.32 15.46V14.08C50.32 13.38 49.76 12.8 49.06 12.8H43.34C41.68 12.8 40.22 11.42 40.22 9.69999V7.97999C40.22 6.29999 41.62 4.85999 43.34 4.85999H49.48C51.14 4.85999 52.62 6.27999 52.62 7.97999V8.93999H50.1V8.25999C50.1 7.55999 49.54 6.99999 48.84 6.99999Z" fill="white"/>
<path d="M61.7428 16.86V18.86H58.9628C57.4228 18.86 56.1628 17.66 56.1628 16.08V10.04H54.2828V8.01999H56.1628V5.63999H58.4828V8.01999H61.7628V10.04H58.4828V15.74C58.4828 16.4 58.9228 16.86 59.5828 16.86H61.7428Z" fill="white"/>
<path d="M66.8794 16.86H70.4994C70.8794 16.86 71.1994 16.56 71.1994 16.16V10.04H66.8794C66.2394 10.04 65.7194 10.54 65.7194 11.18V15.7C65.7194 16.36 66.2394 16.86 66.8794 16.86ZM69.4594 18.86H66.2594C64.6794 18.86 63.4194 17.54 63.4194 16.02V10.86C63.4194 9.27999 64.7394 8.01999 66.2594 8.01999H73.4994V18.86H71.1994V17.38L69.4594 18.86Z" fill="white"/>
<path d="M82.6608 16.86V18.86H79.8808C78.3408 18.86 77.0808 17.66 77.0808 16.08V10.04H75.2008V8.01999H77.0808V5.63999H79.4008V8.01999H82.6808V10.04H79.4008V15.74C79.4008 16.4 79.8408 16.86 80.5008 16.86H82.6608Z" fill="white"/>
<path d="M90.8773 9.97999H87.7173C87.0373 9.97999 86.6173 10.42 86.6173 11.06V11.36C86.6173 12 87.0773 12.46 87.7173 12.46H91.7173C93.2573 12.46 94.5173 13.68 94.5173 15.22V16.1C94.5173 17.64 93.2573 18.86 91.7173 18.86H87.1973C85.6573 18.86 84.3573 17.62 84.3573 16.06V15.7H86.6173V15.76C86.6173 16.42 87.1173 16.9 87.7773 16.9H91.1373C91.8173 16.9 92.2373 16.46 92.2373 15.82V15.54C92.2373 14.9 91.7573 14.46 91.1373 14.46H87.1373C85.5773 14.46 84.3573 13.26 84.3573 11.7V10.78C84.3573 9.23999 85.5773 8.01999 87.1373 8.01999H91.4573C92.9973 8.01999 94.2973 9.25999 94.2973 10.84V11.2H92.0373V11.12C92.0373 10.46 91.5373 9.97999 90.8773 9.97999Z" fill="white"/>
</svg>